<svg width="57" height="56" viewBox="0 0 57 56" fill="none" xmlns="http://www.w3.org/2000/svg">
<g id="Box">
<path id="Shape" d="M28.7997 16.3003C29.7187 15.7833 30.0446 14.6194 29.5277 13.7004C29.0108 12.7814 27.8468 12.4555 26.9278 12.9724L26.9265 12.9732L26.9236 12.9748L26.913 12.9808L26.8729 13.0034L26.7198 13.0903C26.5865 13.1661 26.3922 13.2771 26.1454 13.4192C25.6519 13.7034 24.9485 14.1122 24.105 14.6131C22.42 15.6135 20.1665 16.9866 17.9072 18.4692C15.6591 19.9446 13.3567 21.5599 11.5985 23.0434C10.7243 23.7811 9.92868 24.5325 9.33532 25.2556C8.82244 25.8807 8.13647 26.8602 8.13647 28C8.13647 29.1398 8.82244 30.1193 9.33532 30.7444C9.92868 31.4675 10.7243 32.2189 11.5985 32.9566C13.3567 34.4401 15.6591 36.0554 17.9072 37.5307C20.1665 39.0134 22.42 40.3864 24.105 41.3869C24.9485 41.8878 25.6519 42.2966 26.1454 42.5808C26.3922 42.7229 26.5865 42.8339 26.7198 42.9097L26.8729 42.9965L26.9278 43.0275C27.8468 43.5445 29.0108 43.2185 29.5277 42.2996C30.0446 41.3806 29.7187 40.2166 28.7997 39.6997L28.7974 39.6984L28.7887 39.6935L28.7524 39.673L28.6075 39.5908C28.4797 39.5181 28.2913 39.4105 28.0509 39.2721C27.5699 38.9951 26.8812 38.5948 26.0543 38.1038C24.3984 37.1206 22.1974 35.7792 20.0021 34.3386C17.7957 32.8906 15.6435 31.3738 14.0608 30.0384C14.0092 29.9949 13.9585 29.9518 13.9086 29.9091H49.5001C50.5545 29.9091 51.4092 29.0544 51.4092 28C51.4092 26.9456 50.5545 26.0909 49.5001 26.0909H13.9086C13.9585 26.0482 14.0092 26.0051 14.0608 25.9616C15.6435 24.6261 17.7957 23.1094 20.0021 21.6614C22.1974 20.2208 24.3984 18.8793 26.0543 17.8962C26.8812 17.4052 27.5699 17.0049 28.0509 16.7279C28.2913 16.5894 28.4797 16.4818 28.6075 16.4092L28.7524 16.327L28.7887 16.3065L28.7974 16.3016L28.7997 16.3003Z" fill="white"/>
</g>
</svg>
