<svg width="57" height="56" viewBox="0 0 57 56" fill="none" xmlns="http://www.w3.org/2000/svg">
<g id="Info">
<g id="Vector">
<path fill-rule="evenodd" clip-rule="evenodd" d="M28.491 20.5621C29.4575 20.5621 30.241 19.7786 30.241 18.8121C30.241 17.8456 29.4575 17.0621 28.491 17.0621C27.5245 17.0621 26.741 17.8456 26.741 18.8121C26.741 19.7786 27.5245 20.5621 28.491 20.5621ZM30.241 25.3653C30.241 24.3988 29.4575 23.6153 28.491 23.6153C27.5245 23.6153 26.741 24.3988 26.741 25.3653V37.032C26.741 37.9985 27.5245 38.782 28.491 38.782C29.4575 38.782 30.241 37.9985 30.241 37.032V25.3653Z" fill="white"/>
<path fill-rule="evenodd" clip-rule="evenodd" d="M28.5001 47.8334C39.4537 47.8334 48.3334 38.9537 48.3334 28C48.3334 17.0464 39.4537 8.16669 28.5001 8.16669C17.5464 8.16669 8.66675 17.0464 8.66675 28C8.66675 38.9537 17.5464 47.8334 28.5001 47.8334ZM28.5001 51.3334C41.3867 51.3334 51.8334 40.8867 51.8334 28C51.8334 15.1134 41.3867 4.66669 28.5001 4.66669C15.6134 4.66669 5.16675 15.1134 5.16675 28C5.16675 40.8867 15.6134 51.3334 28.5001 51.3334Z" fill="white"/>
</g>
</g>
</svg>
