<svg width="57" height="56" viewBox="0 0 57 56" fill="none" xmlns="http://www.w3.org/2000/svg">
<g id="Replay">
<g id="Vector">
<path d="M31.8444 6.86114C32.7162 6.34294 33.0029 5.21609 32.4847 4.34425C31.9665 3.47242 30.8396 3.18574 29.9678 3.70395L23.5073 7.54399C22.2306 8.30281 22.1367 10.1162 23.3282 11.0028L29.3577 15.4894C30.1713 16.0949 31.3218 15.9261 31.9272 15.1124C32.5327 14.2988 32.3639 13.1483 31.5503 12.5429L29.9836 11.3771C39.1418 12.1319 46.339 19.8038 46.339 29.1567C46.339 39.0098 38.3515 46.9973 28.4984 46.9973C18.6454 46.9973 10.6579 39.0098 10.6579 29.1567C10.6579 26.616 11.1879 24.204 12.1416 22.0212C12.5476 21.0918 12.1234 20.0092 11.194 19.6032C10.2647 19.1971 9.18207 19.6213 8.77601 20.5507C7.62352 23.1885 6.98511 26.1005 6.98511 29.1567C6.98511 41.0382 16.617 50.6701 28.4984 50.6701C40.3799 50.6701 50.0118 41.0382 50.0118 29.1567C50.0118 17.9127 41.3858 8.68342 30.3903 7.72543L31.8444 6.86114Z" fill="white"/>
<path d="M23.6055 36.171V22.6866C23.6055 21.382 25.0595 20.6039 26.1449 21.3275L36.2582 28.0698C37.228 28.7163 37.228 30.1413 36.2582 30.7878L26.1449 37.53C25.0595 38.2536 23.6055 37.4755 23.6055 36.171Z" fill="white"/>
</g>
</g>
</svg>
